<svg xmlns="http://www.w3.org/2000/svg" width="19" height="22" viewBox="0 0 19 22" fill="none">
<path fill-rule="evenodd" clip-rule="evenodd" d="M9.60713 0C8.37932 0 7.20181 0.487742 6.33362 1.35593C5.46544 2.22411 4.9777 3.40163 4.9777 4.62943V10.0116C4.9777 10.6195 5.09744 11.2215 5.33009 11.7832C5.56274 12.3448 5.90374 12.8552 6.33362 13.2851C6.76351 13.715 7.27385 14.056 7.83552 14.2886C8.39719 14.5213 8.99918 14.641 9.60713 14.641C10.2151 14.641 10.8171 14.5213 11.3787 14.2886C11.9404 14.056 12.4507 13.715 12.8806 13.2851C13.3105 12.8552 13.6515 12.3448 13.8842 11.7832C14.1168 11.2215 14.2366 10.6195 14.2366 10.0116V4.62943C14.2366 3.40163 13.7488 2.22411 12.8806 1.35593C12.0124 0.487742 10.8349 0 9.60713 0ZM8.42855 18.8697V20.7743C8.42855 21.0869 8.55272 21.3866 8.77375 21.6077C8.99477 21.8287 9.29455 21.9529 9.60713 21.9529C9.9197 21.9529 10.2195 21.8287 10.4405 21.6077C10.6615 21.3866 10.7857 21.0869 10.7857 20.7743V18.8681C12.9033 18.7672 14.9008 17.8549 16.3637 16.3206C17.8267 14.7862 18.6428 12.7476 18.6428 10.6276C18.6428 10.315 18.5187 10.0152 18.2976 9.7942C18.0766 9.57317 17.7768 9.449 17.4643 9.449C17.1517 9.449 16.8519 9.57317 16.6309 9.7942C16.4099 10.0152 16.2857 10.315 16.2857 10.6276C16.2857 12.1905 15.6648 13.6893 14.5597 14.7945C13.4546 15.8996 11.9557 16.5204 10.3928 16.5204H8.82141C7.25853 16.5204 5.75966 15.8996 4.65453 14.7945C3.54941 13.6893 2.92855 12.1905 2.92855 10.6276C2.92855 10.4728 2.89807 10.3195 2.83884 10.1766C2.77961 10.0336 2.6928 9.90364 2.58336 9.7942C2.47392 9.68476 2.34399 9.59794 2.201 9.53871C2.05801 9.47949 1.90475 9.449 1.74998 9.449C1.59521 9.449 1.44195 9.47949 1.29896 9.53871C1.15597 9.59794 1.02605 9.68476 0.916607 9.7942C0.807166 9.90364 0.720354 10.0336 0.661125 10.1766C0.601896 10.3195 0.571411 10.4728 0.571411 10.6276C0.571025 12.7479 1.38699 14.7869 2.84998 16.3216C4.31298 17.8563 6.31068 18.7687 8.42855 18.8697Z" fill="#7A64FF"/>
</svg>